<svg id="Layer_1" data-name="Layer 1" xmlns="http://www.w3.org/2000/svg" viewBox="0 0 42 42"><defs><style>.cls-1{fill:#fff;}.cls-2{fill:#39579a;}</style></defs><title>Untitled-1</title><path class="cls-1" d="M18.78,16.19V18h-3v3.7h3v9h3.7v-9h3.7V18h-3.7V16.13A1.07,1.07,0,0,1,23.22,15h3V11.34h-3A4.66,4.66,0,0,0,18.78,16.19Z"/><path class="cls-2" d="M21,1A20,20,0,1,0,41,21,20,20,0,0,0,21,1Zm5.19,14h-3a1.07,1.07,0,0,0-.74,1.14V18h3.7v3.7h-3.7v9h-3.7v-9h-3V18h3V16.19a4.66,4.66,0,0,1,4.44-4.84h3V15Z"/></svg>