<svg id="Layer_1" data-name="Layer 1" xmlns="http://www.w3.org/2000/svg" xmlns:xlink="http://www.w3.org/1999/xlink" viewBox="0 0 42 42"><defs><style>.cls-1{fill:none;}.cls-2{clip-path:url(#clip-path);}.cls-3{fill:url(#radial-gradient);}.cls-4{fill:#fff;}</style><clipPath id="clip-path"><circle class="cls-1" cx="21" cy="21" r="20"/></clipPath><radialGradient id="radial-gradient" cx="12.63" cy="40.86" r="40.32" gradientUnits="userSpaceOnUse"><stop offset="0" stop-color="#ffd676"/><stop offset="0.25" stop-color="#f2a454"/><stop offset="0.38" stop-color="#f05c3c"/><stop offset="0.7" stop-color="#c22f86"/><stop offset="0.96" stop-color="#6666ad"/><stop offset="0.99" stop-color="#5c6cb2"/></radialGradient></defs><title>Untitled-1</title><g class="cls-2"><path class="cls-3" d="M41,32.21A8.72,8.72,0,0,1,32.3,41H9.7A8.72,8.72,0,0,1,1,32.21V9.79A8.72,8.72,0,0,1,9.7,1H32.3A8.72,8.72,0,0,1,41,9.79V32.21Z"/></g><path class="cls-4" d="M27.46,10A4.57,4.57,0,0,1,32,14.54V27.46A4.57,4.57,0,0,1,27.46,32H14.54A4.57,4.57,0,0,1,10,27.46V14.54A4.57,4.57,0,0,1,14.54,10H27.46m0-2H14.54A6.58,6.58,0,0,0,8,14.54V27.46A6.58,6.58,0,0,0,14.54,34H27.46A6.58,6.58,0,0,0,34,27.46V14.54A6.58,6.58,0,0,0,27.46,8h0Z"/><path class="cls-4" d="M21,16.32A4.68,4.68,0,1,1,16.32,21,4.69,4.69,0,0,1,21,16.32m0-2.4A7.09,7.09,0,1,0,28.09,21,7.09,7.09,0,0,0,21,13.91h0Z"/><circle class="cls-4" cx="28.34" cy="13.6" r="1.72"/></svg>