<svg id="Layer_1" data-name="Layer 1" xmlns="http://www.w3.org/2000/svg" viewBox="0 0 42 42"><defs><style>.cls-1{fill:#fff;}.cls-2{fill:#007ab7;}</style></defs><title>Untitled-1</title><path class="cls-1" d="M26.89,16a5.31,5.31,0,0,0-4.55-.11V15.34H18.81V27.57h3.53V19.72s1.48-1.42,2.84-.63a1.39,1.39,0,0,1,.63,1v7.45h3.47V20.12A4.9,4.9,0,0,0,26.89,16Z"/><rect class="cls-1" x="13.57" y="15.34" width="3.53" height="12.23"/><path class="cls-1" d="M15.34,14a2.16,2.16,0,0,0,2.16-2.16,2.16,2.16,0,1,0-4.32,0A2.16,2.16,0,0,0,15.34,14Z"/><path class="cls-2" d="M21,1A20,20,0,1,0,41,21,20,20,0,0,0,21,1Zm8.31,26.57H25.81V20.12a1.39,1.39,0,0,0-.63-1c-1.37-.8-2.84.63-2.84,0.63v7.85H18.81V15.34h3.53v0.57a5.31,5.31,0,0,1,4.55.11,4.9,4.9,0,0,1,2.39,4.1v7.45ZM15.34,9.65a2.21,2.21,0,0,1,2.16,2.22,2.16,2.16,0,1,1-4.32,0A2.21,2.21,0,0,1,15.34,9.65Zm1.76,5.69V27.57H13.57V15.34H17.1Z"/></svg>