<svg id="Layer_1" data-name="Layer 1" xmlns="http://www.w3.org/2000/svg" viewBox="0 0 42 42"><defs><style>.cls-1{fill:#99c641;}.cls-2,.cls-3{fill:#fff;}.cls-3{opacity:0.5;}</style></defs><title>Untitled-1</title><path class="cls-1" d="M21,1A20,20,0,1,0,41,21,20,20,0,0,0,21,1Z"/><polygon class="cls-2" points="21 35.5 29.3 30.59 29.3 21.04 21 25.95 21 35.5"/><polygon class="cls-2" points="21 16.34 29.3 21.04 29.3 11.43 21 16.34"/><polygon class="cls-3" points="21 16.34 21 25.95 29.3 21.04 21 16.34"/><polygon class="cls-2" points="12.7 21.27 12.7 30.88 21 25.96 12.7 21.27"/><polygon class="cls-2" points="21 6.5 12.7 11.41 12.7 21.27 21 16.36 21 6.5"/></svg>