<svg id="Layer_1" data-name="Layer 1" xmlns="http://www.w3.org/2000/svg" viewBox="0 0 200.94 47.36"><defs><style>.cls-1{fill:#302e2f;}</style></defs><title>logo</title><path class="cls-1" d="M201.43,24.5V22.79c0-2-1.33-3-3.33-3h0c-2,0-3.33,1-3.33,3v1.75c0,1.27.58,1.87,1.85,2.58l2,1.12c1,0.56,1.37.94,1.37,1.91v1.17c0,1.37-.56,2-1.89,2s-1.89-.67-1.89-2V29.79a0.49,0.49,0,0,0-.54-0.54h-0.4a0.48,0.48,0,0,0-.54.54v1.87c0,2.14,1.14,3,3.35,3h0c2.21,0,3.35-.92,3.35-3V29.72a3,3,0,0,0-1.87-2.62L197.52,26c-1-.54-1.31-0.83-1.31-1.81v-1c0-1.39.56-2,1.87-2s1.87,0.6,1.87,2V24.5a0.49,0.49,0,0,0,.54.54h0.4a0.48,0.48,0,0,0,.54-0.54m-10.4,0V22.79c0-2-1.33-3-3.33-3h0c-2,0-3.33,1-3.33,3v1.75c0,1.27.58,1.87,1.85,2.58l2,1.12c1,0.56,1.37.94,1.37,1.91v1.17c0,1.37-.56,2-1.89,2s-1.89-.67-1.89-2V29.79a0.49,0.49,0,0,0-.54-0.54h-0.4a0.48,0.48,0,0,0-.54.54v1.87c0,2.14,1.14,3,3.35,3h0c2.21,0,3.35-.92,3.35-3V29.72a3,3,0,0,0-1.87-2.62L187.12,26c-1-.54-1.31-0.83-1.31-1.81v-1c0-1.39.56-2,1.87-2s1.87,0.6,1.87,2V24.5a0.49,0.49,0,0,0,.54.54h0.4A0.48,0.48,0,0,0,191,24.5M181,34V33.72a0.48,0.48,0,0,0-.54-0.54h-3.91V27.81h3.2a0.48,0.48,0,0,0,.54-0.54V27a0.48,0.48,0,0,0-.54-0.54h-3.2V21.32h3.85a0.48,0.48,0,0,0,.54-0.54V20.5a0.48,0.48,0,0,0-.54-0.54h-4.81a0.48,0.48,0,0,0-.54.54V34a0.48,0.48,0,0,0,.54.54h4.87A0.48,0.48,0,0,0,181,34m-15.72,0V23.27l4.18,10.82a0.61,0.61,0,0,0,.62.44h0.44A0.48,0.48,0,0,0,171,34V20.5A0.48,0.48,0,0,0,170.5,20h-0.31a0.48,0.48,0,0,0-.54.54V31L165.52,20.4a0.57,0.57,0,0,0-.6-0.44H164.4a0.48,0.48,0,0,0-.54.54V34a0.48,0.48,0,0,0,.54.54h0.31a0.48,0.48,0,0,0,.54-0.54M154.36,21.32h1.94c1.39,0,2,.58,2,2.1V25c0,1.52-.6,2.1-2,2.1h-1.94V21.32Zm5.72,12.59L158,28.16a2.68,2.68,0,0,0,1.83-2.85V23c0-2.08-1.21-3.08-3.41-3.08h-3a0.48,0.48,0,0,0-.54.54V34a0.48,0.48,0,0,0,.54.54h0.4a0.5,0.5,0,0,0,.56-0.54v-5.6h2.14l2.08,5.7a0.61,0.61,0,0,0,.62.44h0.44a0.43,0.43,0,0,0,.44-0.62m-16.27-4.29L145.33,22l1.52,7.57h-3Zm5.45,4.31-2.91-13.48a0.54,0.54,0,0,0-.6-0.48H145a0.54,0.54,0,0,0-.6.48l-2.87,13.48a0.46,0.46,0,0,0,.5.6h0.35a0.52,0.52,0,0,0,.58-0.5l0.62-3.1h3.58l0.62,3.1a0.54,0.54,0,0,0,.58.5h0.44a0.46,0.46,0,0,0,.5-0.6M138.19,34V33.72a0.48,0.48,0,0,0-.54-0.54h-3.91V27.81h3.2a0.48,0.48,0,0,0,.54-0.54V27a0.48,0.48,0,0,0-.54-0.54h-3.2V21.32h3.85a0.48,0.48,0,0,0,.54-0.54V20.5a0.48,0.48,0,0,0-.54-0.54h-4.81a0.48,0.48,0,0,0-.54.54V34a0.48,0.48,0,0,0,.54.54h4.87a0.48,0.48,0,0,0,.54-0.54M126.82,23.42v7.66c0,1.52-.6,2.1-2,2.1h-1.89V21.32h1.89c1.39,0,2,.58,2,2.1M124.9,20H122a0.48,0.48,0,0,0-.54.54V34a0.48,0.48,0,0,0,.54.54h2.93c2.21,0,3.41-1,3.41-3.08V23c0-2.08-1.21-3.08-3.41-3.08m-12,14V33.72a0.48,0.48,0,0,0-.54-0.54H108.4V27.81h3.2a0.48,0.48,0,0,0,.54-0.54V27a0.48,0.48,0,0,0-.54-0.54h-3.2V21.32h3.85a0.48,0.48,0,0,0,.54-0.54V20.5a0.48,0.48,0,0,0-.54-0.54h-4.81a0.48,0.48,0,0,0-.54.54V34a0.48,0.48,0,0,0,.54.54h4.87a0.48,0.48,0,0,0,.54-0.54m-9.59,0V33.72a0.48,0.48,0,0,0-.54-0.54H98.81V27.81H102a0.48,0.48,0,0,0,.54-0.54V27a0.48,0.48,0,0,0-.54-0.54h-3.2V21.32h3.85a0.48,0.48,0,0,0,.54-0.54V20.5a0.48,0.48,0,0,0-.54-0.54H97.86a0.48,0.48,0,0,0-.54.54V34a0.48,0.48,0,0,0,.54.54h4.87a0.48,0.48,0,0,0,.54-0.54M91.9,23.42v7.66c0,1.52-.6,2.1-2,2.1H88V21.32H89.9c1.39,0,2,.58,2,2.1M90,20H87a0.48,0.48,0,0,0-.54.54V34a0.48,0.48,0,0,0,.54.54H90c2.21,0,3.41-1,3.41-3.08V23C93.4,21,92.19,20,90,20M75,29l2.93-8.43A0.4,0.4,0,0,0,77.5,20H77.08a0.63,0.63,0,0,0-.62.46l-2.21,6.87-2.18-6.87A0.63,0.63,0,0,0,71.44,20H71a0.4,0.4,0,0,0-.44.6L73.5,29v5a0.48,0.48,0,0,0,.54.54h0.42A0.48,0.48,0,0,0,75,34V29Zm-11.67.62L64.85,22l1.52,7.57h-3Zm5.45,4.31L65.87,20.44a0.54,0.54,0,0,0-.6-0.48H64.47a0.54,0.54,0,0,0-.6.48L61,33.93a0.46,0.46,0,0,0,.5.6h0.35a0.52,0.52,0,0,0,.58-0.5l0.62-3.1h3.58L67.26,34a0.54,0.54,0,0,0,.58.5h0.44a0.46,0.46,0,0,0,.5-0.6M54.1,33.16H54a0.49,0.49,0,0,0-.54.54V34a0.48,0.48,0,0,0,.54.54h0.12c2.21,0,3.48-.94,3.48-3.08V20.5A0.49,0.49,0,0,0,57.08,20H56.66a0.48,0.48,0,0,0-.54.54V31c0,1.54-.62,2.12-2,2.12" transform="translate(-0.53 -0.32)"/><path class="cls-1" d="M28.19,40.54a0.87,0.87,0,0,1-.87-0.87l0-23.14a0.87,0.87,0,0,1,.87-0.87h0a0.87,0.87,0,0,1,.87.87l0,21.54a13.41,13.41,0,0,0,3.29-18.24,0.87,0.87,0,0,1,1.45-1,15.15,15.15,0,0,1-5.17,21.54,0.87,0.87,0,0,1-.43.11" transform="translate(-0.53 -0.32)"/><path class="cls-1" d="M20.08,47.68l-0.35,0A22.43,22.43,0,0,1,6.21,41.38,19.82,19.82,0,0,1,.53,27.1a20.65,20.65,0,0,1,3.18-11A0.87,0.87,0,0,1,5.18,17,18.92,18.92,0,0,0,2.26,27.1c0,8.42,5.46,17.5,17.66,18.84a1.54,1.54,0,0,0,1.2-.39,1.61,1.61,0,0,0,.53-1.2V7.55a7.21,7.21,0,0,1,2.53-5.49H16.77a0.87,0.87,0,0,1,0-1.74H28.88a0.87,0.87,0,0,1,0,1.74,5.5,5.5,0,0,0-5.49,5.49v36.8a3.35,3.35,0,0,1-1.11,2.49,3.3,3.3,0,0,1-2.2.84" transform="translate(-0.53 -0.32)"/><path class="cls-1" d="M30.78,45.58A0.87,0.87,0,0,1,30.36,44,19.11,19.11,0,0,0,20.85,8.12H15.26A5.63,5.63,0,0,1,16.85,12V39.67a0.87,0.87,0,1,1-1.73,0V12a3.92,3.92,0,0,0-3.92-3.92,0.87,0.87,0,0,1,0-1.73h9.65A20.84,20.84,0,0,1,31.2,45.47a0.87,0.87,0,0,1-.42.11" transform="translate(-0.53 -0.32)"/></svg>